Coordinates
version=1
nRows=10
nColumns=40
inDegrees=yes

Units are S.I. units (second, meters, Newtons, ...)
Angles are in degrees.

endheader
time	pelvis_tilt	pelvis_list	pelvis_rotation	pelvis_tx	pelvis_ty	pelvis_tz	hip_flexion_r	hip_adduction_r	hip_rotation_r	knee_angle_r	knee_angle_r_beta	ankle_angle_r	subtalar_angle_r	mtp_angle_r	hip_flexion_l	hip_adduction_l	hip_rotation_l	knee_angle_l	knee_angle_l_beta	ankle_angle_l	subtalar_angle_l	mtp_angle_l	lumbar_extension	lumbar_bending	lumbar_rotation	arm_flex_r	arm_add_r	arm_rot_r	elbow_flex_r	pro_sup_r	wrist_flex_r	wrist_dev_r	arm_flex_l	arm_add_l	arm_rot_l	elbow_flex_l	pro_sup_l	wrist_flex_l	wrist_dev_l
      0.44000000	     -3.04446606	     -1.36914617	     -4.20873087	     -0.11759666	      0.89259137	      1.15257159	     -2.63143361	      0.72263143	    -14.57161340	    -17.43694661	     -0.30433213	     11.94844442	      3.81435333	     -0.03605886	     32.70153466	      5.56821933	     14.14849182	    -41.53166324	     -0.72486427	      7.88668960	     18.36631577	     21.49546751	     -5.03637082	      1.49490903	      2.86305514	      0.50835219	    -13.38196312	     -8.76681777	     60.23584063	     89.95437384	      0.00000000	      0.00000000	    -15.70640147	      8.43001724	     18.77190861	     30.33032620	     89.95437384	      0.00000000	      0.00000000
      0.45000000	     -3.19966712	     -1.41400684	     -4.51256914	     -0.10478357	      0.89112435	      1.15269635	     -3.37934503	      0.61803404	    -14.59180478	    -17.41292732	     -0.30391291	     11.95153117	      4.28521749	     -0.36136311	     33.15606479	      5.56714058	     14.58714208	    -38.44351495	     -0.67096591	      7.63917237	     17.97392302	     20.95760745	     -4.94076584	      1.49670621	      3.26962436	      0.82616071	    -13.71507854	     -8.34834600	     61.75025640	     89.95437384	      0.00000000	      0.00000000	    -15.95279693	      8.20075488	     19.57463360	     28.88672271	     89.95437384	      0.00000000	      0.00000000
      0.46000000	     -3.39088307	     -1.46723477	     -4.75772332	     -0.09182440	      0.88955050	      1.15280533	     -4.07089939	      0.53787093	    -14.57820266	    -17.44028116	     -0.30439033	     11.87351595	      4.71560541	     -0.68661051	     33.57372383	      5.58302829	     15.08586832	    -35.44366842	     -0.61860871	      7.70824069	     17.37372315	     20.26595807	     -4.78355723	      1.47630070	      3.60910287	      1.10632252	    -14.00074192	     -8.00060728	     63.12111203	     89.95437384	      0.00000000	      0.00000000	    -16.19835285	      7.96917788	     20.49195784	     27.56978819	     89.95437384	      0.00000000	      0.00000000
      0.47000000	     -3.65325979	     -1.59304485	     -5.00974544	     -0.07880961	      0.88780824	      1.15299698	     -4.61296296	      0.51076827	    -14.58779057	    -17.61419731	     -0.30742574	     11.78157429	      5.06036898	     -1.04262547	     34.05920577	      5.74186565	     15.68431554	    -32.65285317	     -0.56989980	      7.83978973	     16.49314271	     19.47747127	     -4.54921886	      1.52415006	      3.89199900	      1.38074673	    -14.22681663	     -7.68601991	     64.39647126	     89.95437384	      0.00000000	      0.00000000	    -16.46357803	      7.77356918	     21.38055174	     26.35557498	     89.95437384	      0.00000000	      0.00000000
      0.48000000	     -3.83588759	     -1.67458453	     -5.26933142	     -0.06544597	      0.88604123	      1.15300971	     -5.17962638	      0.29855479	    -14.96057937	    -17.86800041	     -0.31185544	     10.91537938	      5.61472522	     -6.84312317	     34.41847252	      5.95818848	     16.62107809	    -30.04275011	     -0.52434491	      6.69306194	     16.07454540	     10.25890505	     -4.35880996	      1.51220488	      4.14863948	      1.59106540	    -14.50184247	     -7.30849387	     65.61974026	     89.95437384	      0.00000000	      0.00000000	    -16.78663157	      7.52760568	     22.48316118	     25.36471929	     89.95437384	      0.00000000	      0.00000000
      0.49000000	     -4.08980766	     -1.72439833	     -5.50884030	     -0.05202186	      0.88424446	      1.15294178	     -5.67509627	      0.16023001	    -14.67807501	    -18.18736906	     -0.31742947	     10.67317547	      5.68577709	     -6.82036254	     34.89049590	      6.11828997	     17.46934385	    -27.93380168	     -0.48753681	      6.72399912	     15.02470846	     10.01513957	     -4.06490357	      1.46236208	      4.42760211	      1.73388896	    -14.71384172	     -7.07249795	     66.67173475	     89.95437384	      0.00000000	      0.00000000	    -17.01879823	      7.42630821	     22.99933591	     24.30566450	     89.95437384	      0.00000000	      0.00000000
      0.50000000	     -4.39505307	     -1.87416525	     -5.62806904	     -0.03845442	      0.88226634	      1.15263807	     -6.09713212	      0.12196449	    -14.46944229	    -18.55408057	     -0.32382980	     10.34355437	      5.75178210	     -6.78251234	     35.46039943	      6.31644292	     18.21827690	    -26.24351459	     -0.45803574	      6.72747051	     14.10457163	      9.78610013	     -3.70558475	      1.55477684	      4.57990823	      1.76471823	    -14.99332651	     -6.76143790	     67.77192134	     89.95437384	      0.00000000	      0.00000000	    -17.37584038	      7.32613888	     23.31730804	     23.60905540	     89.95437384	      0.00000000	      0.00000000
      0.51000000	     -4.47256602	     -1.75934193	     -5.86316570	     -0.02444248	      0.88073211	      1.15227565	     -6.68384485	     -0.27719152	    -14.05194470	    -19.07001419	     -0.33283454	      9.93958326	      5.85579213	     -6.76990612	     35.65395978	      6.36623763	     19.50381115	    -24.89092881	     -0.43442866	      6.64433606	     12.89410084	      9.39827828	     -3.54485695	      1.29267558	      4.81314506	      1.82964803	    -15.13268875	     -6.59509029	     68.56552837	     89.95437384	      0.00000000	      0.00000000	    -17.51259648	      7.23909570	     23.94865742	     22.61685054	     89.95437384	      0.00000000	      0.00000000
      0.52000000	     -4.54487736	     -1.71763728	     -6.16146269	     -0.01026113	      0.87909575	      1.15192522	     -7.20899184	     -0.63598431	    -13.53614236	    -19.71954441	     -0.34417098	      9.42497934	      5.98543530	     -6.72951294	     35.85043219	      6.45419516	     20.51289773	    -24.04132349	     -0.41960025	      6.65928665	     12.02852930	      9.01634047	     -3.38390133	      1.10326613	      5.07264091	      1.82638213	    -15.32987248	     -6.35704581	     69.34704653	     89.95437384	      0.00000000	      0.00000000	    -17.74791162	      7.12273011	     24.38566418	     21.92551338	     89.95437384	      0.00000000	      0.00000000
      0.53000000	     -4.50493289	     -1.65307402	     -6.44330950	      0.00447342	      0.87768916	      1.15174968	     -7.84232750	     -1.02978171	    -13.00628565	    -20.41635004	     -0.35633253	      8.92770284	      6.06172837	     -6.71880438	     35.88981062	      6.53252264	     21.53713393	    -23.66415321	     -0.41301739	      6.64983352	     11.22269977	      8.40844618	     -3.28072721	      0.84611244	      5.31473260	      1.73991377	    -15.33623916	     -6.32250910	     69.94430968	     89.95437384	      0.00000000	      0.00000000	    -17.94225181	      7.07437244	     24.90179096	     21.25270610	     89.95437384	      0.00000000	      0.00000000
